<svg width="48" height="45" viewBox="0 0 48 45" fill="none" xmlns="http://www.w3.org/2000/svg">
<path d="M1.6 7.9985H1.8272C2.17643 9.37064 2.97289 10.5873 4.09075 11.4563C5.2086 12.3253 6.58412 12.797 8 12.797C9.41588 12.797 10.7914 12.3253 11.9093 11.4563C13.0271 10.5873 13.8236 9.37064 14.1728 7.9985H46.4C46.8243 7.9985 47.2313 7.82993 47.5314 7.52987C47.8314 7.22982 48 6.82285 48 6.3985C48 5.97416 47.8314 5.56719 47.5314 5.26713C47.2313 4.96707 46.8243 4.7985 46.4 4.7985H14.1728C13.8236 3.42637 13.0271 2.20971 11.9093 1.34073C10.7914 0.471753 9.41588 0 8 0C6.58412 0 5.2086 0.471753 4.09075 1.34073C2.97289 2.20971 2.17643 3.42637 1.8272 4.7985H1.6C1.17565 4.7985 0.768687 4.96707 0.468629 5.26713C0.168571 5.56719 0 5.97416 0 6.3985C0 6.82285 0.168571 7.22982 0.468629 7.52987C0.768687 7.82993 1.17565 7.9985 1.6 7.9985ZM8 3.1985C8.6329 3.1985 9.25159 3.38618 9.77782 3.7378C10.3041 4.08942 10.7142 4.58919 10.9564 5.17392C11.1986 5.75864 11.262 6.40205 11.1385 7.02279C11.015 7.64353 10.7103 8.21372 10.2627 8.66125C9.81521 9.10877 9.24503 9.41354 8.62429 9.53702C8.00355 9.66049 7.36014 9.59712 6.77541 9.35492C6.19069 9.11272 5.69092 8.70256 5.3393 8.17633C4.98768 7.65009 4.8 7.0314 4.8 6.3985C4.8 5.54981 5.13714 4.73588 5.73726 4.13576C6.33737 3.53565 7.15131 3.1985 8 3.1985ZM46.4 20.7985H46.1728C45.8236 19.4264 45.0271 18.2097 43.9093 17.3407C42.7914 16.4718 41.4159 16 40 16C38.5841 16 37.2086 16.4718 36.0907 17.3407C34.9729 18.2097 34.1764 19.4264 33.8272 20.7985H1.6C1.17565 20.7985 0.768687 20.9671 0.468629 21.2671C0.168571 21.5672 0 21.9742 0 22.3985C0 22.8228 0.168571 23.2298 0.468629 23.5299C0.768687 23.8299 1.17565 23.9985 1.6 23.9985H33.8272C34.1764 25.3706 34.9729 26.5873 36.0907 27.4563C37.2086 28.3253 38.5841 28.797 40 28.797C41.4159 28.797 42.7914 28.3253 43.9093 27.4563C45.0271 26.5873 45.8236 25.3706 46.1728 23.9985H46.4C46.8243 23.9985 47.2313 23.8299 47.5314 23.5299C47.8314 23.2298 48 22.8228 48 22.3985C48 21.9742 47.8314 21.5672 47.5314 21.2671C47.2313 20.9671 46.8243 20.7985 46.4 20.7985ZM40 25.5985C39.3671 25.5985 38.7484 25.4108 38.2222 25.0592C37.6959 24.7076 37.2858 24.2078 37.0436 23.6231C36.8014 23.0384 36.738 22.395 36.8615 21.7742C36.985 21.1535 37.2897 20.5833 37.7373 20.1358C38.1848 19.6882 38.755 19.3835 39.3757 19.26C39.9965 19.1365 40.6399 19.1999 41.2246 19.4421C41.8093 19.6843 42.3091 20.0944 42.6607 20.6207C43.0123 21.1469 43.2 21.7656 43.2 22.3985C43.2 23.2472 42.8629 24.0611 42.2627 24.6612C41.6626 25.2614 40.8487 25.5985 40 25.5985ZM46.4 36.7985H30.1728C29.8236 35.4264 29.0271 34.2097 27.9093 33.3407C26.7914 32.4718 25.4159 32 24 32C22.5841 32 21.2086 32.4718 20.0907 33.3407C18.9729 34.2097 18.1764 35.4264 17.8272 36.7985H1.6C1.17565 36.7985 0.768687 36.9671 0.468629 37.2671C0.168571 37.5672 0 37.9742 0 38.3985C0 38.8229 0.168571 39.2298 0.468629 39.5299C0.768687 39.8299 1.17565 39.9985 1.6 39.9985H17.8272C18.1764 41.3706 18.9729 42.5873 20.0907 43.4563C21.2086 44.3253 22.5841 44.797 24 44.797C25.4159 44.797 26.7914 44.3253 27.9093 43.4563C29.0271 42.5873 29.8236 41.3706 30.1728 39.9985H46.4C46.8243 39.9985 47.2313 39.8299 47.5314 39.5299C47.8314 39.2298 48 38.8229 48 38.3985C48 37.9742 47.8314 37.5672 47.5314 37.2671C47.2313 36.9671 46.8243 36.7985 46.4 36.7985ZM24 41.5985C23.3671 41.5985 22.7484 41.4108 22.2222 41.0592C21.6959 40.7076 21.2858 40.2078 21.0436 39.6231C20.8014 39.0384 20.738 38.395 20.8615 37.7742C20.985 37.1535 21.2897 36.5833 21.7373 36.1358C22.1848 35.6882 22.755 35.3835 23.3757 35.26C23.9965 35.1365 24.6399 35.1999 25.2246 35.4421C25.8093 35.6843 26.3091 36.0944 26.6607 36.6207C27.0123 37.1469 27.2 37.7656 27.2 38.3985C27.2 39.2472 26.8629 40.0611 26.2627 40.6612C25.6626 41.2614 24.8487 41.5985 24 41.5985Z" fill="white"/>
</svg>
